<svg version="1.1" id="logo-ayg" xmlns="http://www.w3.org/2000/svg" xmlns:xlink="http://www.w3.org/1999/xlink" x="0px" y="0px" viewBox="0 0 406.4 47.1" enable-background="new 0 0 406.4 47.1" xml:space="preserve" style="visibility: inherit; opacity: 0.966944;">
                <g>
                  <path d="M38.8,45.6H44V46H28.2v-0.5h5.7l-5.4-16.3H11.7L6.1,45.6h5.8V46H0v-0.5h5.3L20.9,2.2l2.6-1.7L38.8,45.6z M12,28.7h16.3
                    L20.4,5L12,28.7z"></path>
                  <path d="M61.7,19.2c-1.1-1.1-2.2-1.8-3.2-2.1c-1-0.3-2.1-0.5-3.4-0.5c-1.6,0-2.9,0.4-3.9,1.3c-1,0.9-1.5,2-1.5,3.4
                    c0,0.8,0.1,1.5,0.4,2c0.3,0.6,0.7,1.1,1.1,1.6c0.5,0.5,1,0.9,1.6,1.3c0.6,0.4,1.3,0.8,2,1.3l4.9,2.9c2.1,1.2,3.6,2.5,4.4,3.6
                    c0.8,1.2,1.2,2.6,1.1,4.2c0,2.2-0.9,4-2.7,5.5c-1.8,1.5-4.2,2.6-7.4,3.4c-1.5,0-3.1-0.3-4.8-0.9c-1.7-0.6-3.1-1.3-4.3-2v-7.6h0.3
                    l3,6.3c0.9,0.8,1.8,1.5,2.9,2.1c1.1,0.6,2.3,0.9,3.6,0.9c2.1,0,3.6-0.5,4.6-1.5c0.9-1,1.4-2.2,1.4-3.5c0-0.9-0.1-1.8-0.4-2.4
                    c-0.2-0.7-0.6-1.3-1-1.8c-0.5-0.5-1-1.1-1.8-1.5c-0.7-0.5-1.6-1-2.5-1.6l-4.6-2.8c-0.6-0.4-1.2-0.8-1.8-1.2
                    c-0.6-0.4-1.2-0.8-1.7-1.4c-0.5-0.5-0.9-1.2-1.3-1.9c-0.3-0.7-0.5-1.6-0.5-2.6c0-2,0.8-3.6,2.4-4.8c1.6-1.2,3.9-2.3,6.9-3.3
                    c1.9,0,3.6,0.2,5.1,0.7c1.5,0.5,2.7,1,3.6,1.6v7.7h-0.3L61.7,19.2z"></path>
                  <path d="M67.1,16.8v-0.3h5.2v-5.4l3.9-2.5v7.8h9.7v0.3h-9.7v22.8c0,3.1,1.4,4.6,4.1,4.6c1.2,0,2.3-0.2,3.3-0.5
                    c0.9-0.3,1.9-0.8,2.9-1.4l0.2,0.3l-7.7,4.5c-1.5,0-2.6-0.2-3.5-0.6c-0.9-0.4-1.5-1-2-1.6c-0.5-0.7-0.7-1.5-0.9-2.5
                    c-0.1-0.9-0.2-2-0.2-3V16.8H67.1z"></path>
                  <path d="M89.1,46.1v-0.3l4.5-0.3V17.3l-4.7,1.2l-0.1-0.3l8.3-2.5h0.3v9.8l7-9.8h3.6v4.7h-6.6l-3.9,5.6v19.5h6.2v0.5H89.1z"></path>
                  <path d="M111.2,46.1v-0.3l4.5-0.3V17.3l-4.7,1.2l-0.1-0.3l8.3-2.5h0.3v29.7l4.5,0.3v0.3H111.2z M120.5,4c0,1.5-1.2,2.6-2.6,2.6
                    s-2.6-1.2-2.6-2.6c0-1.5,1.2-2.6,2.6-2.6S120.5,2.5,120.5,4z"></path>
                  <path d="M138,47.1c-1.7,0-3.3-0.4-4.7-1.2c-1.4-0.8-2.6-1.9-3.7-3.2c-1-1.3-1.8-2.9-2.4-4.6c-0.6-1.7-0.8-3.5-0.8-5.4
                    c0-2.1,0.3-4.2,0.9-6.1c0.6-1.9,1.5-3.6,2.7-5.1c1.2-1.5,2.7-2.8,4.5-3.8c1.8-1.1,4-1.8,6.5-2.3c1.1,0,2.2,0.2,3.3,0.5
                    c1.1,0.3,2.1,0.9,3.1,1.6V1.7l-4.4,0.9l-0.1-0.3l8.1-2.3h0.3v39.1c0,1,0.1,2,0.3,2.8c0.2,0.8,0.5,1.8,1,3l4.8-0.6l0.1,0.3l-8.6,1.9
                    l-1.3-5.8L138,47.1z M130.6,30.6c0,1.8,0.2,3.5,0.6,5.2c0.4,1.7,1,3.1,1.8,4.3c0.8,1.2,1.7,2.2,2.7,2.9c1.1,0.7,2.2,1.1,3.5,1.1
                    c0.6,0,1.1,0,1.5-0.1c0.5-0.1,0.9-0.2,1.4-0.4c0.5-0.2,0.9-0.5,1.5-0.9c0.5-0.4,1.2-0.8,2-1.4l1.7-1.2V19.9
                    c-0.6-0.9-1.5-1.8-2.5-2.5c-1.1-0.7-2.4-1.1-4-1.1c-3.4,0-5.9,1.3-7.6,3.8C131.5,22.8,130.6,26.2,130.6,30.6z"></path>
                  <path d="M195.3,40.2c-0.9,1-2.2,2.1-3.7,3.3c-1.5,1.2-3,2.3-4.4,3.3c-1.4,0-2.7-0.2-3.9-0.5c-1.2-0.4-2.3-0.9-3.2-1.5
                    c-0.9-0.6-1.7-1.4-2.2-2.4c-0.5-0.9-0.8-1.9-0.8-3.1c0-1.2,0.2-2.2,0.7-3.2c0.5-1,1.1-1.8,1.8-2.6c0.8-0.8,1.7-1.5,2.7-2.1
                    c1-0.6,2.1-1.3,3.3-1.9l-0.4-0.5c-1.8-1.8-3.1-3.4-4.2-4.6c-1-1.2-1.5-2.5-1.5-3.8c0-2,0.8-3.6,2.5-4.7c1.6-1.2,4.1-2.2,7.3-3.1
                    c1.5,0,2.8,0.2,3.9,0.5c1.1,0.3,2,0.8,2.8,1.4c0.7,0.6,1.3,1.2,1.7,2c0.4,0.8,0.6,1.5,0.6,2.4c0,1.7-0.7,3.2-2.1,4.5
                    c-1.4,1.4-3.5,2.7-6.4,4.2l8.3,8.9l6.7-6.9l-3.5-0.3v-0.4h7.4v0.4l-3.2,0.3l-7.1,7.3l7.7,8.4l3.1,0.3v0.4h-8L195.3,40.2z
                      M187.7,43.5c0.9,0,1.9-0.2,3-0.6c1.1-0.4,2.2-1.2,3.5-2.3l0.8-0.8l-9.2-9.9c-1,0.5-1.9,1.1-2.5,1.7c-0.7,0.6-1.2,1.2-1.5,1.8
                    c-0.4,0.6-0.6,1.2-0.7,1.8c-0.1,0.6-0.2,1.1-0.2,1.6c0,0.9,0.2,1.8,0.5,2.6c0.4,0.8,0.9,1.5,1.5,2.2c0.6,0.6,1.4,1.1,2.2,1.5
                    C185.8,43.3,186.7,43.5,187.7,43.5z M189.2,27.3c1-0.6,1.9-1.2,2.5-1.9c0.6-0.7,1.1-1.4,1.4-2.1c0.3-0.7,0.5-1.4,0.6-2.2
                    c0.1-0.8,0.2-1.5,0.2-2.2c0-1.6-0.5-2.9-1.5-3.8c-1-0.9-2.3-1.4-4-1.4c-1.6,0-2.8,0.4-3.8,1.3c-0.9,0.9-1.4,2.1-1.4,3.7
                    c0,1.2,0.5,2.6,1.6,4c1.1,1.4,2.5,2.9,4.1,4.6L189.2,27.3z"></path>
                  <path d="M262.2,44.5c-1.2,0.5-2.5,0.9-3.8,1.3c-1.4,0.4-2.8,0.7-4.3,0.9c-1.5,0.2-3,0.4-4.5,0.4c-3.1,0-5.9-0.5-8.6-1.5
                    c-2.7-1-5-2.5-7-4.4c-2-1.9-3.5-4.3-4.7-7.2c-1.2-2.9-1.7-6.2-1.7-9.9c0-3.4,0.5-6.6,1.6-9.4c1.1-2.9,2.6-5.4,4.6-7.5
                    c2-2.1,4.4-3.8,7.1-5.1c2.8-1.3,5.9-1.9,9.3-1.9c1.6,0,3.1,0.1,4.6,0.3c1.5,0.2,2.8,0.5,4.1,0.8c1.2,0.3,2.4,0.7,3.4,1.1
                    c1,0.4,1.8,0.8,2.4,1.1v9.6h-0.3l-3.3-7.9c-1.1-1.1-2.6-2.1-4.3-3.1c-1.8-0.9-4-1.4-6.6-1.4c-2.7,0-5.1,0.6-7.3,1.8
                    c-2.2,1.2-4,2.8-5.4,4.9c-1.5,2.1-2.6,4.6-3.4,7.5c-0.8,2.9-1.2,6-1.2,9.4c0,2.8,0.4,5.6,1.1,8.3c0.7,2.7,1.8,5.1,3.2,7.2
                    c1.4,2.1,3.2,3.8,5.4,5c2.1,1.3,4.7,1.9,7.5,1.9c2.6,0,4.8-0.5,6.7-1.5c1.9-1,3.3-2.1,4.3-3.4V27l-5.5-0.5v-0.3h14.1v0.3l-4.1,0.5
                    V43C264.5,43.5,263.4,44,262.2,44.5z"></path>
                  <path d="M285,15.5c1.8,0,3.2,0.2,4.4,0.5c1.2,0.3,2.1,0.9,2.9,1.6c0.8,0.8,1.3,1.9,1.5,3.2c0.2,1.3,0.3,2.8,0.3,4.5v13.9
                    c0,1.1,0.1,2.2,0.4,3.1c0.2,1,0.5,1.9,0.9,2.9l3.7-0.5l0.1,0.3l-7.7,1.4l-1.2-5.7l-9,6.4c-2.5,0-4.5-0.6-6-1.9
                    c-1.4-1.3-2.2-3.1-2.2-5.4c0-1,0.2-2,0.6-3.1c0.4-1.1,1.4-2.2,2.8-3.3l13.7-4.6v-3.3c0-1,0-1.9-0.1-2.9c-0.1-0.9-0.3-1.7-0.7-2.5
                    c-0.4-0.7-1.1-1.3-2-1.7c-0.9-0.4-2.2-0.6-3.8-0.6c-0.7,0-1.4,0.1-2,0.2c-0.6,0.1-1.4,0.3-2.5,0.6l-1.6,6.5H274v-4.3L285,15.5z
                      M290.3,29l-9.7,3.7c-0.9,0.7-1.7,1.6-2.3,2.5c-0.6,0.9-0.9,2.1-0.9,3.4c0,1.6,0.5,3,1.4,4c0.9,1,2.1,1.5,3.6,1.5
                    c1.1,0,2.2-0.3,3.2-0.8c1-0.5,1.9-1,2.6-1.5l2.1-1.5V29z"></path>
                  <path d="M316.9,19.2c-1.1-1.1-2.2-1.8-3.2-2.1c-1-0.3-2.1-0.5-3.4-0.5c-1.6,0-2.9,0.4-3.9,1.3c-1,0.9-1.5,2-1.5,3.4
                    c0,0.8,0.1,1.5,0.4,2c0.3,0.6,0.7,1.1,1.1,1.6c0.5,0.5,1,0.9,1.6,1.3c0.6,0.4,1.3,0.8,2,1.3l4.9,2.9c2.1,1.2,3.6,2.5,4.4,3.6
                    c0.8,1.2,1.2,2.6,1.1,4.2c0,2.2-0.9,4-2.7,5.5c-1.8,1.5-4.2,2.6-7.4,3.4c-1.5,0-3.1-0.3-4.8-0.9c-1.7-0.6-3.1-1.3-4.3-2v-7.6h0.3
                    l3,6.3c0.9,0.8,1.8,1.5,2.9,2.1c1.1,0.6,2.3,0.9,3.6,0.9c2.1,0,3.6-0.5,4.6-1.5c0.9-1,1.4-2.2,1.4-3.5c0-0.9-0.1-1.8-0.4-2.4
                    c-0.2-0.7-0.6-1.3-1-1.8c-0.5-0.5-1-1.1-1.8-1.5c-0.7-0.5-1.6-1-2.5-1.6l-4.6-2.8c-0.6-0.4-1.2-0.8-1.8-1.2
                    c-0.6-0.4-1.2-0.8-1.7-1.4c-0.5-0.5-0.9-1.2-1.3-1.9c-0.3-0.7-0.5-1.6-0.5-2.6c0-2,0.8-3.6,2.4-4.8c1.6-1.2,3.9-2.3,6.9-3.3
                    c1.9,0,3.6,0.2,5.1,0.7c1.5,0.5,2.7,1,3.6,1.6v7.7h-0.3L316.9,19.2z"></path>
                  <path d="M322.3,16.8v-0.3h5.2v-5.4l3.9-2.5v7.8h9.7v0.3h-9.7v22.8c0,3.1,1.4,4.6,4.1,4.6c1.2,0,2.3-0.2,3.3-0.5
                    c0.9-0.3,1.9-0.8,2.9-1.4l0.2,0.3l-7.7,4.5c-1.5,0-2.6-0.2-3.5-0.6c-0.9-0.4-1.5-1-2-1.6c-0.5-0.7-0.7-1.5-0.9-2.5
                    c-0.1-0.9-0.2-2-0.2-3V16.8H322.3z"></path>
                  <path d="M355.9,47.1c-2,0-3.8-0.4-5.4-1.2c-1.6-0.8-3-1.8-4.2-3.2c-1.2-1.4-2.1-2.9-2.7-4.8c-0.6-1.8-1-3.8-1-6
                    c0-4.8,1.3-8.5,3.9-11.1c2.6-2.6,6.2-4.4,10.9-5.4c2,0,3.8,0.4,5.4,1.2c1.7,0.8,3.1,1.8,4.3,3.2c1.2,1.4,2.1,2.9,2.7,4.8
                    c0.6,1.8,1,3.8,1,6c0,4.8-1.3,8.5-3.9,11.1C364.2,44.3,360.5,46.1,355.9,47.1z M355.7,16.7c-1.5,0-2.8,0.3-3.9,1
                    c-1.1,0.7-2,1.6-2.8,2.9c-0.7,1.2-1.3,2.7-1.7,4.4c-0.4,1.7-0.6,3.6-0.6,5.6c0,2.1,0.3,4,0.8,5.9c0.5,1.9,1.2,3.5,2.2,4.9
                    c0.9,1.4,2,2.5,3.4,3.4c1.3,0.8,2.8,1.2,4.4,1.2c1.5,0,2.8-0.4,3.9-1.1c1.1-0.7,2.1-1.7,2.8-3c0.8-1.3,1.3-2.8,1.7-4.4
                    c0.4-1.7,0.6-3.5,0.6-5.5c0-2.3-0.3-4.4-0.8-6.3c-0.5-1.9-1.3-3.5-2.2-4.8c-0.9-1.3-2.1-2.3-3.4-3.1
                    C358.7,17.1,357.3,16.7,355.7,16.7z M361.5,0h4.6l-8.5,11.2h-0.3L361.5,0z"></path>
                  <path d="M373.8,46.1v-0.3l4.5-0.3V17.3l-4.7,1.6l-0.1-0.3l8.3-2.9h0.3v7.4l11.9-7.7c1.3,0,2.3,0.2,3.1,0.5c0.8,0.3,1.4,0.7,1.7,1
                    c0.4,0.4,0.7,0.8,1,1.2c0.3,0.4,0.5,0.9,0.6,1.5c0.2,0.6,0.3,1.3,0.4,2.2c0.1,0.9,0.1,1.9,0.1,3.2v20.6h5.3v0.5h-12.6v-0.3l3.5-0.3
                    V24.6c0-2.4-0.4-4-1.2-4.9c-0.8-0.8-1.9-1.3-3.4-1.3c-0.7,0-1.3,0.1-1.9,0.2c-0.6,0.2-1.2,0.4-1.7,0.7c-0.6,0.3-1.2,0.6-1.8,1
                    c-0.6,0.4-1.3,0.9-2.1,1.4l-2.8,1.8v21.9l3.5,0.3v0.3H373.8z"></path>
                </g>
              </svg>